GIL06_slow_grf.mot																		
version=4																		
nRows=72																		
nColumns=19																		
inDegrees=yes																		
endheader																		
																		
time	     ground_force_vx	     ground_force_vy	     ground_force_vz	     ground_force_px	     ground_force_py	     ground_force_pz	     1_ground_force_vx	     1_ground_force_vy	     1_ground_force_vz	     1_ground_force_px	     1_ground_force_py	     1_ground_force_pz	     ground_torque_x	     ground_torque_y	     ground_torque_z	     1_ground_torque_x	    1_ground_torque_y	     1_ground_torque_z
0.23333348	0	0	0	1.8275144	0	0.033753575	-57.70143878	750.8495856	13.13298147	1.45482776	0	-0.033753575	0	0	0	0	2.15264087	0
0.24166681	0	0	0	1.83033105	0	0.033189875	-54.61595745	764.8993409	13.74899473	1.45600549	0	-0.033605995	0	0	0	0	2.1458208	0
0.25000015	0	0	0	1.8330271	0	0.032594965	-50.82893377	779.3516912	14.81992832	1.45746448	0	-0.033525765	0	0	0	0	2.1308479	0
0.25833347	0	0	0	1.83557361	0	0.031973375	-46.71845901	791.7339058	16.20960131	1.4590752	0	-0.033510565	0	0	0	0	2.08897607	0
0.2666668	0	0	0	1.83798181	0	0.031334415	-42.42043084	801.1763892	17.53617992	1.46075647	0	-0.033518655	0	0	0	0	1.99042017	0
0.27500015	0	0	0	1.84028796	0	0.030695955	-37.95501815	807.4226616	18.34579216	1.46249512	0	-0.033517925	0	0	0	0	1.81120679	0
0.28333348	0	0	0	1.84253076	0	0.030084155	-33.46922298	810.5483399	18.3362525	1.46434937	0	-0.033515355	0	0	0	0	1.55139221	0
0.29166681	0	0	0	1.84474182	0	0.029517985	-29.26012045	811.1499656	17.49448911	1.46640576	0	-0.033548535	0	0	0	0	1.23898267	0
0.30000013	0	0	0	1.84692297	0	0.029009745	-25.56241147	809.9113474	16.09327635	1.46876172	0	-0.033669355	0	0	0	0	0.91720801	0
0.30833349	0	0	0	1.8490592	0	0.028579965	-22.50576527	807.4000067	14.57767107	1.47151965	0	-0.033911995	0	0	0	0	0.62594409	0
0.31666681	0	0	0	1.85113208	0	0.028241045	-20.17657245	803.9986426	13.31791239	1.47475098	0	-0.034251385	0	0	0	0	0.39991992	0
0.32500014	0	0	0	1.85309021	0	0.027994545	-18.75424884	799.9149498	12.48128721	1.47847888	0	-0.034643745	0	0	0	0	0.25700827	0
0.33333349	0	0	0	1.85488696	0	0.027822315	-18.44174357	795.34406	12.01603611	1.4826604	0	-0.035060925	0	0	0	0	0.18952725	0
0.34166682	0	0	0	1.85651599	0	0.027683525	-19.28937133	790.6307392	11.78901743	1.4872041	0	-0.035506505	0	0	0	0	0.17512378	0
0.35000014	0	0	0	1.85800952	0	0.027546865	-21.05228421	785.9839991	11.83159813	1.49201453	0	-0.036007115	0	0	0	0	0.19778168	0
0.35833347	0	0	0	1.85943738	0	0.027415045	-23.29499709	781.3513729	12.31285443	1.4969834	0	-0.036597515	0	0	0	0	0.2515976	0
0.36666679	0	0	0	1.86085632	0	0.027326075	-25.53931047	776.7502539	13.28656635	1.5019563	0	-0.037278725	0	0	0	0	0.32711127	0
0.37500015	0	0	0	1.86227539	0	0.027337485	-27.37970319	772.341564	14.56927433	1.50675891	0	-0.038024395	0	0	0	0	0.39880377	0
0.38333347	0	0	0	1.86366699	0	0.027489645	-28.61925841	768.4987382	15.9128183	1.51126331	0	-0.038797285	0	0	0	0	0.43759308	0
0.39166683	0	0	0	1.86500574	0	0.027788995	-29.25269039	765.4292678	17.08977846	1.51543994	0	-0.039555155	0	0	0	0	0.42332813	0
0.40000015	0	0	0	1.8662876	0	0.028199625	-29.3592654	763.0352431	17.89552619	1.51931775	0	-0.040284065	0	0	0	0	0.35044019	0
0.40833348	0	0	0	1.8675332	0	0.028660605	-28.96108412	761.0113128	18.33608323	1.52291284	0	-0.040986705	0	0	0	0	0.22975	0
0.41666681	0	0	0	1.86878528	0	0.029127065	-28.0138044	759.0013814	18.61574935	1.52622864	0	-0.041654515	0	0	0	0	0.07281519	0
0.42500013	0	0	0	1.87007971	0	0.029567315	-26.47386579	756.8466544	18.89885959	1.52925989	0	-0.042281565	0	0	0	0	-0.11084436	0
0.43333346	0	0	0	1.87144348	0	0.029977455	-24.3349032	754.7919795	19.21528971	1.53195386	0	-0.042887155	0	0	0	0	-0.31655017	0
0.44166681	0	0	0	1.87285107	0	0.030374195	-21.62616321	753.0980477	19.58313347	1.53424194	0	-0.043523085	0	0	0	0	-0.54376392	0
0.45000014	0	0	0	1.87421704	0	0.030761695	-18.35939478	751.7393409	20.07357574	1.53611426	0	-0.044219525	0	0	0	0	-0.78719531	0
0.45833349	0	0	0	1.8753916	0	0.031131365	-14.5727048	750.5481728	20.72462276	1.53765405	0	-0.044951395	0	0	0	0	-1.04940747	0
0.46666682	0	0	0	1.87621899	0	0.031481715	-10.43754524	749.4880026	21.50661625	1.53901831	0	-0.045617715	0	0	0	0	-1.3368728	0
0.47500014	0	0	0	1.87663416	0	0.031805665	-6.239357	748.7791839	22.34021973	1.54038574	0	-0.046103065	0	0	0	0	-1.64889966	0
0.48333347	0	0	0	1.87670386	0	0.032093465	-2.25765953	748.9433305	23.13023902	1.54184631	0	-0.046357335	0	0	0	0	-1.97259546	0
0.49166682	0	0	0	1.8765885	0	0.032328435	1.32218552	750.5190322	23.83971924	1.54337097	0	-0.046422405	0	0	0	0	-2.28933691	0
0.50000012	0	0	0	1.87645935	0	0.032498035	4.43495505	753.3855064	24.29606059	1.54493164	0	-0.046366095	0	0	0	0	-2.61760352	0
0.50833344	0	0	0	1.87643591	0	0.032614145	7.18866755	757.068747	24.48252698	1.54653992	0	-0.046253155	0	0	0	0	-2.98185693	0
0.51666677	0	0	0	1.87657739	0	0.032700235	9.85573955	761.4988187	24.75759542	1.54815869	0	-0.046133215	0	0	0	0	-3.36308203	0
0.52500015	0	0	0	1.8769115	0	0.032778755	12.56355972	766.6624778	25.33818409	1.54974585	0	-0.046013585	0	0	0	0	-3.73567407	0
0.53333348	0	0	0	1.87748462	0	0.032846125	15.3887946	772.3026403	26.31822687	1.55128149	0	-0.045899605	0	0	0	0	-4.0706709	0
0.54166681	0	0	0	1.87839246	0	0.032867595	18.41495986	778.2589706	27.6981403	1.55273401	0	-0.045799085	0	0	0	0	-4.34715625	0
0.55000013	0	0	0	1.8797428	0	0.032826005	21.70113602	784.6411342	29.40885465	1.55408191	0	-0.045726815	0	0	0	0	-4.55883008	0
0.55833352	0	0	0	1.88154578	0	0.032743915	25.28767485	791.7358617	31.38350532	1.55531738	0	-0.045696785	0	0	0	0	-4.70552051	0
0.56666684	0	0	0	1.88370569	0	0.032662005	29.18578317	799.7299246	33.55143451	1.55642761	0	-0.045688395	0	0	0	0	-4.79856299	0
0.57500017	0	0	0	1.88606921	0	0.032625935	33.42414806	808.1333679	35.76334542	1.55746582	0	-0.045666145	0	0	0	0	-4.85498877	0
0.58333349	0	0	0	1.88851599	0	0.032664815	38.09900888	816.4010357	37.73478053	1.55846863	0	-0.045610335	0	0	0	0	-4.88970264	0
0.59166682	0	0	0	1.89099768	0	0.032759265	43.27906596	824.4016335	39.35496315	1.55939575	0	-0.045524055	0	0	0	0	-4.91358984	0
0.60000014	0	0	0	1.89364648	0	0.032864125	48.96871681	832.0138909	40.70001677	1.56020349	0	-0.045432775	0	0	0	0	-4.92388281	0
0.60833347	0	0	0	1.89676172	0	0.032968665	55.13127053	838.7930421	41.85701256	1.56089099	0	-0.045342935	0	0	0	0	-4.91595557	0
0.61666679	0	0	0	1.9006825	0	0.033180165	61.69243728	844.0410788	42.83928277	1.561479	0	-0.045254675	0	0	0	0	-4.89368652	0
0.62500012	0	0	0	1.90575635	0	0.033695375	68.5399595	846.9816775	43.60548986	1.56199854	0	-0.045170415	0	0	0	0	-4.86605078	0
0.63333344	0	0	0	1.91245007	0	0.034787515	75.55775814	846.9568921	44.06848252	1.56249561	0	-0.045077735	0	0	0	0	-4.84190479	0
0.64166677	0	0	0	1.92099707	0	0.036665515	82.64430919	843.6431129	44.10458064	1.56299792	0	-0.044957465	0	0	0	0	-4.83807275	0
0.65000015	0	0	0	1.92963062	0	0.038878255	89.66958224	837.1482744	43.61304431	1.56349341	0	-0.044799605	0	0	0	0	-4.86913281	0
0.65833348	-0.41092674	29.84952504	0.43977916	1.93586475	0	0.040561895	96.40508479	827.6326257	42.51839053	1.56399536	0	-0.044624395	0	-0.01027023	0	0	-4.92854834	0
0.66666681	0.93219027	79.44603069	3.56328967	1.93937451	0	0.041405175	102.5253674	814.9388247	40.69909137	1.56453662	0	-0.044434035	0	0.01139233	0	0	-4.99242676	0
0.67500013	1.49902468	136.1646368	8.2667186	1.94127612	0	0.041609975	107.7131051	798.3918919	38.05508685	1.56514246	0	-0.044191445	0	0.06061597	0	0	-5.03174512	0
0.68333352	-2.45577103	177.6314936	12.07398273	1.94298352	0	0.041720635	111.7989649	776.9454211	34.59870855	1.5658374	0	-0.043858405	0	0.10306018	0	0	-5.02548633	0
0.69166684	-12.54259431	207.3949741	13.09268524	1.94602734	0	0.042395435	114.8652968	749.7349554	30.42277772	1.56664539	0	-0.043423195	0	0.11908911	0	0	-4.97651855	0
0.70000017	-27.32482711	238.1015779	10.74510069	1.95160266	0	0.043894275	116.9945046	716.3647343	25.74959486	1.56755225	0	-0.042901165	0	0.13194543	0	0	-4.87340625	0
0.70833349	-44.030636	277.9284434	5.01061749	1.95986218	0	0.046054265	118.077678	676.5395251	21.08476727	1.56855432	0	-0.042322945	0	0.14151422	0	0	-4.66692236	0
0.71666682	-60.26627391	327.1342029	-2.80994833	1.96866711	0	0.048076715	117.7852784	630.4128403	16.84678045	1.5696593	0	-0.041707805	0	0.08742505	0	0	-4.32217676	0
0.72500014	-74.45361892	375.1579857	-9.37045071	1.97579382	0	0.049338385	115.6357022	578.8504642	13.05368096	1.57086877	0	-0.041063085	0	-0.0839729	0	0	-3.85816748	0
0.73333347	-85.46728839	415.6927268	-13.13860541	1.98117896	0	0.049954655	111.1485013	523.2392535	9.50922237	1.57222388	0	-0.040373205	0	-0.36778235	0	0	-3.33835596	0
0.74166679	-93.71005175	452.0024487	-15.2960392	1.98532544	0	0.050214665	104.0439712	465.4595983	6.0044284	1.57378833	0	-0.039605965	0	-0.75043567	0	0	-2.83673486	0
0.75000012	-100.1093751	485.5936284	-17.20870474	1.98858948	0	0.050329475	94.46621657	407.4975744	2.47237417	1.5756178	0	-0.038737985	0	-1.16332092	0	0	-2.40457227	0
0.7583335	-104.3203683	515.2276809	-19.53912747	1.99131396	0	0.050431665	83.121963	350.8252312	-0.94642696	1.57778857	0	-0.037783825	0	-1.57243115	0	0	-2.05875928	0
0.76666683	-106.4991012	540.5309049	-21.74199001	1.99381287	0	0.050532695	70.6605085	296.7732696	-3.92898695	1.58035095	0	-0.036774335	0	-2.00015771	0	0	-1.77660657	0
0.77500015	-107.5372502	563.2559017	-23.14325347	1.99626758	0	0.050587045	57.32733679	246.5897215	-6.10519078	1.58333325	0	-0.035707685	0	-2.4376167	0	0	-1.51973511	0
0.78333348	-108.3152691	585.7216617	-23.68179027	1.99865808	0	0.050566675	43.27455066	201.2587414	-7.17051538	1.58671277	0	-0.034561865	0	-2.85453979	0	0	-1.25109412	0
0.79166681	-109.3077384	608.9881135	-23.6452007	2.00087659	0	0.050490895	29.69152316	161.2001724	-7.04836211	1.59017517	0	-0.033299605	0	-3.23143188	0	0	-0.94167126	0
0.80000013	-110.3991678	633.2401409	-23.35462123	2.00277026	0	0.050405085	19.52126999	125.8035649	-6.54038186	1.59322131	0	-0.031827855	0	-3.55832373	0	0	-0.62586115	0
0.80833346	-111.1416272	658.608988	-23.04517128	2.00422437	0	0.050351505	13.778168	94.39151222	-6.28845756	1.59598804	0	-0.030268935	0	-3.82444434	0	0	-0.38925586	0
0.81666678	-111.1101894	684.7133294	-22.84510539	2.00522339	0	0.050359025	10.02663995	67.6183583	-5.41091718	1.59910754	0	-0.029042675	0	-4.02456128	0	0	-0.24698932	0
0.82500017	-110.0486054	710.6169978	-22.87640902	2.00586072	0	0.050419335	6.93587216	46.0712712	-3.50486087	1.60295959	0	-0.028563855	0	-4.16521094	0	0	-0.15786536	0
